<svg width="1026" height="1026" viewBox="0 0 1026 1026" fill="none" xmlns="http://www.w3.org/2000/svg">
<path d="M1024.26 887.757L885.834 1025.68L420.732 558.847L559.158 420.926L1024.26 887.757Z" fill="#550E78"/>
<path d="M481.909 964.531C215.821 964.026 0.524264 747.904 1.02902 481.809C1.21444 384.103 30.4695 293.246 80.5934 217.406L215.419 352.732C196.481 391.722 185.821 435.484 185.734 481.736C185.423 645.724 318.104 778.914 482.087 779.225C646.069 779.536 779.255 646.85 779.567 482.863C779.878 318.876 647.196 185.686 483.214 185.375C436.831 185.287 392.913 195.841 353.768 214.733L219.025 79.4883C295.057 29.6443 386.028 0.728932 483.737 0.914366C749.825 1.41935 965.122 217.542 964.617 483.637C964.112 749.733 747.996 965.036 481.909 964.531Z" fill="#550E78"/>
</svg>
